HIERARCHY
ROOT Hips
{
	OFFSET 0.000000 0.000000 0.000000
	CHANNELS 6 Xposition Yposition Zposition Zrotation Yrotation Xrotation 
	JOINT LHipJoint
	{
		OFFSET 0.000000 0.000000 0.000000
		CHANNELS 3 Zrotation Yrotation Xrotation
		JOINT LeftUpLeg
		{
			OFFSET 1.363060 -1.794630 0.839290
			CHANNELS 3 Zrotation Yrotation Xrotation
			JOINT LeftLeg
			{
				OFFSET 2.448110 -6.726130 0.000000
				CHANNELS 3 Zrotation Yrotation Xrotation
				JOINT LeftFoot
				{
					OFFSET 2.562200 -7.039590 0.000000
					CHANNELS 3 Zrotation Yrotation Xrotation
					JOINT LeftToeBase
					{
						OFFSET 0.157640 -0.433110 2.322550
						CHANNELS 3 Zrotation Yrotation Xrotation
						End Site
						{
							OFFSET 0.000000 0.000000 0.000000
						}
					}
				}
			}
		}
	}
	JOINT RHipJoint
	{
		OFFSET 0.000000 0.000000 0.000000
		CHANNELS 3 Zrotation Yrotation Xrotation
		JOINT RightUpLeg
		{
			OFFSET -1.305520 -1.794630 0.839290
			CHANNELS 3 Zrotation Yrotation Xrotation
			JOINT RightLeg
			{
				OFFSET -2.542530 -6.985550 0.000000
				CHANNELS 3 Zrotation Yrotation Xrotation
				JOINT RightFoot
				{
					OFFSET -2.568260 -7.056230 0.000000
					CHANNELS 3 Zrotation Yrotation Xrotation
					JOINT RightToeBase
					{
						OFFSET -0.164730 -0.452590 2.363150
						CHANNELS 3 Zrotation Yrotation Xrotation
						End Site
						{
							OFFSET 0.000000 0.000000 0.000000
						}
					}
				}
			}
		}
	}
	JOINT LowerBack
	{
		OFFSET 0.000000 0.000000 0.000000
		CHANNELS 3 Zrotation Yrotation Xrotation
		JOINT Spine
		{
			OFFSET 0.028270 2.035590 -0.193380
			CHANNELS 3 Zrotation Yrotation Xrotation
			JOINT Spine1
			{
				OFFSET 0.056720 2.048850 -0.042750
				CHANNELS 3 Zrotation Yrotation Xrotation
				JOINT Neck
				{
					OFFSET 0.000000 0.000000 0.000000
					CHANNELS 3 Zrotation Yrotation Xrotation
					JOINT Neck1
					{
						OFFSET -0.054170 1.746240 0.172020
						CHANNELS 3 Zrotation Yrotation Xrotation
						JOINT Head
						{
							OFFSET 0.104070 1.761360 -0.123970
							CHANNELS 3 Zrotation Yrotation Xrotation
							End Site
							{
								OFFSET 0.000000 0.000000 0.000000
							}
						}
					}
				}
				JOINT LeftShoulder
				{
					OFFSET 0.000000 0.000000 0.000000
					CHANNELS 3 Zrotation Yrotation Xrotation
					JOINT LeftArm
					{
						OFFSET 3.362410 1.200890 -0.311210
						CHANNELS 3 Zrotation Yrotation Xrotation
						JOINT LeftForeArm
						{
							OFFSET 4.983000 -0.000000 -0.000000
							CHANNELS 3 Zrotation Yrotation Xrotation
							JOINT LeftHand
							{
								OFFSET 3.483560 -0.000000 -0.000000
								CHANNELS 3 Zrotation Yrotation Xrotation
								JOINT LeftFingerBase
								{
									OFFSET 0.000000 0.000000 0.000000
									CHANNELS 3 Zrotation Yrotation Xrotation
									JOINT LeftHandIndex1
									{
										OFFSET 0.715260 -0.000000 -0.000000
										CHANNELS 3 Zrotation Yrotation Xrotation
										End Site
										{
											OFFSET 0.000000 0.000000 0.000000
										}
									}
								}
								JOINT LThumb
								{
									OFFSET 0.000000 0.000000 0.000000
									CHANNELS 3 Zrotation Yrotation Xrotation
									End Site
									{
										OFFSET 0.000000 0.000000 0.000000
									}
								}
							}
						}
					}
				}
				JOINT RightShoulder
				{
					OFFSET 0.000000 0.000000 0.000000
					CHANNELS 3 Zrotation Yrotation Xrotation
					JOINT RightArm
					{
						OFFSET -3.136600 1.374050 -0.404650
						CHANNELS 3 Zrotation Yrotation Xrotation
						JOINT RightForeArm
						{
							OFFSET -5.241900 -0.000000 -0.000000
							CHANNELS 3 Zrotation Yrotation Xrotation
							JOINT RightHand
							{
								OFFSET -3.444170 -0.000000 -0.000000
								CHANNELS 3 Zrotation Yrotation Xrotation
								JOINT RightFingerBase
								{
									OFFSET 0.000000 0.000000 0.000000
									CHANNELS 3 Zrotation Yrotation Xrotation
									JOINT RightHandIndex1
									{
										OFFSET -0.622530 -0.000000 -0.000000
										CHANNELS 3 Zrotation Yrotation Xrotation
										End Site
										{
											OFFSET 0.000000 0.000000 0.000000
										}
									}
								}
								JOINT RThumb
								{
									OFFSET 0.000000 0.000000 0.000000
									CHANNELS 3 Zrotation Yrotation Xrotation
									End Site
									{
										OFFSET 0.000000 0.000000 0.000000
									}
								}
							}
						}
					}
				}
			}
		}
	}
}
MOTION
Frames: 8
Frame Time: 0.008333
10.350561 14.937646 26.774344 -177.071878 1.019907 -153.596758 9.112814 -0.730877 -2.106858 -13.417549 -13.362969 -63.556562 14.154032 24.949134 75.393453 4.167219 -4.923692 -27.108346 2.083200 -9.037200 -25.911900 -10.505802 -0.230521 -0.394107 24.009550 15.153916 -63.361748 -13.569186 -25.290826 76.926185 -1.706114 -7.661237 -30.171155 -0.007200 0.547900 -1.505500 1.991302 0.448798 26.776970 2.921948 1.342283 11.608197 -5.468333 0.845467 -24.143954 -9.711286 0.563291 -17.835901 12.728898 -2.179496 -23.321371 3.532600 -4.018500 -6.030900 -0.241298 -10.443954 1.645220 -86.800213 15.695702 -23.533054 22.292030 -23.277829 -4.795647 1.890419 0.478161 17.105419 7.390907 -32.512886 -3.191100 -7.125000 0.000000 0.000000 -14.703500 -2.857900 15.942000 -0.446750 8.070127 2.557698 75.361768 -21.084973 -14.138973 -18.069345 19.837407 -4.910041 0.224414 -1.099734 41.878181 -10.386464 -67.061391 10.384400 7.125000 0.000000 0.000000 102.158200 74.845900 117.909600 
10.367254 14.901478 26.764838 -177.167951 0.502457 -154.018902 9.062634 -0.711038 -2.039368 -13.344152 -13.637691 -63.448209 14.313180 24.997986 75.829361 4.142784 -4.860241 -27.085477 2.166100 -9.203800 -26.434800 -10.514150 -0.228173 -0.391244 24.328244 14.972478 -63.167263 -13.789958 -25.303668 77.575209 -1.546525 -8.621156 -30.527427 -0.015000 0.790700 -2.173100 2.306576 0.633107 26.533617 2.633289 1.413620 12.087283 -5.668210 0.707248 -23.991676 -9.741832 0.412302 -17.546886 12.861948 -2.418620 -23.743608 3.617500 -4.174400 -6.139200 -0.297717 -10.628655 1.527994 -87.684503 12.066097 -20.644719 21.857416 -22.880613 -4.711490 1.894505 0.451631 17.886324 6.240563 -33.699056 -2.628800 -7.125000 0.000000 0.000000 -15.378500 -3.850900 16.982900 -0.380334 8.137062 2.419689 76.676232 -16.301134 -12.496566 -17.172315 18.920586 -4.573660 0.183707 -1.012903 43.494256 -12.070912 -67.841640 11.931700 7.125000 0.000000 0.000000 106.199400 74.894000 121.727400 
10.385802 14.872961 26.759042 -177.242194 -0.072336 -154.264710 9.072281 -0.725985 -2.080365 -13.263153 -13.926895 -63.411791 14.408344 25.043772 76.125791 4.056772 -4.653437 -26.901262 2.320300 -9.503700 -27.384000 -10.501286 -0.236855 -0.448789 24.554051 14.835783 -63.083148 -13.954458 -25.326052 78.053650 -1.424348 -9.252772 -30.680133 -0.007600 0.563500 -1.548400 2.075965 0.740147 27.148462 2.857407 1.511861 11.340530 -5.681431 0.741316 -24.485951 -9.925457 0.244246 -17.738432 13.165768 -2.563749 -23.318625 3.694300 -4.209800 -5.968700 -0.477175 -10.672582 1.491033 -88.759229 9.248638 -17.571648 21.662229 -22.644416 -4.665356 1.834257 0.513946 17.704724 6.996286 -34.100247 -3.140400 -7.125000 0.000000 0.000000 -14.958600 -4.376700 16.614600 -0.279267 8.224721 2.390609 77.654861 -12.151370 -8.744543 -16.733993 18.473068 -4.368883 0.197621 -0.961087 43.010118 -10.822207 -67.959025 10.759900 7.125000 0.000000 0.000000 105.689300 74.565800 121.616600 
10.406552 14.876787 26.754173 -177.220797 -0.617398 -154.736603 9.014189 -0.719392 -1.986386 -13.082704 -14.208814 -63.049191 14.429925 25.038380 76.176942 4.017421 -4.710824 -26.643780 2.346800 -9.553900 -27.544000 -10.456125 -0.238898 -0.388061 24.879285 14.711275 -62.646205 -14.010264 -25.284071 78.234269 -1.376907 -9.561540 -30.820021 -0.000100 0.054200 -0.149000 2.036341 0.800954 26.481203 2.943577 1.514417 12.337993 -5.703701 0.764341 -24.084017 -10.069591 0.162092 -18.171284 13.502136 -2.629422 -23.526492 3.818100 -4.296800 -5.911500 -0.529258 -10.872880 1.379133 -89.425857 5.308145 -14.510253 21.369597 -22.289084 -4.595425 1.782957 0.594052 17.295453 8.232742 -34.695169 -3.963100 -7.125000 0.000000 0.000000 -14.306800 -5.178600 16.027900 -0.274718 8.378192 2.246105 78.520009 -6.866084 -4.263712 -16.494920 18.254821 -4.239337 0.249042 -0.945957 42.175778 -7.247296 -67.206383 7.435600 7.125000 0.000000 0.000000 100.829600 74.014100 117.572500 
10.428114 14.898464 26.737365 -177.237180 -1.022564 -155.232589 8.914474 -0.725704 -1.932623 -13.021338 -14.355614 -62.381497 14.387999 24.986642 76.030993 4.038307 -4.983055 -26.428577 2.279300 -9.425100 -27.134500 -10.404345 -0.230140 -0.373617 25.134180 14.607224 -61.920220 -13.987491 -25.206502 78.203608 -1.315897 -9.859271 -30.892788 -0.001200 -0.222800 0.612200 2.066882 0.908889 25.935504 2.844474 1.653990 12.682606 -5.780582 0.826680 -23.812342 -10.095803 0.024705 -17.828088 13.721908 -2.777142 -23.714558 3.903800 -4.379600 -5.951500 -0.579691 -11.034703 1.326311 -89.880103 2.232881 -10.598324 21.258706 -22.077673 -4.616477 1.725846 0.679779 16.288941 9.259829 -35.996551 -4.759000 -7.125000 0.000000 0.000000 -13.836200 -6.638100 15.785600 -0.242896 8.471113 2.131632 79.395623 -2.075022 1.040341 -16.738386 18.604686 -4.263033 0.289816 -0.875535 39.505607 -7.095013 -67.446406 7.271800 7.125000 0.000000 0.000000 101.620900 73.892300 118.484600 
10.449675 14.926518 26.709079 -177.465201 -1.250384 -155.763651 8.778992 -0.726124 -1.863659 -13.260372 -14.356300 -61.588490 14.306767 24.898887 75.784641 4.092520 -5.389472 -26.224518 2.115500 -9.102700 -26.117000 -10.357565 -0.211181 -0.364972 25.096466 14.528158 -61.099531 -13.938095 -25.111746 78.071197 -1.271714 -10.010707 -30.872717 -0.006700 -0.530400 1.457500 1.947013 1.025528 25.364897 2.463903 1.781412 13.069822 -5.718899 0.909384 -23.529042 -9.950073 -0.049333 -17.754828 13.707505 -2.877579 -23.779397 3.876200 -4.432100 -5.947300 -0.576768 -11.176807 1.300389 -90.075833 -0.639505 -6.077006 21.344135 -22.069590 -4.711233 1.700583 0.710954 15.326584 8.654914 -37.438638 -4.540200 -7.125000 0.000000 0.000000 -14.262300 -7.941400 16.583800 -0.196390 8.568659 2.035906 80.081785 2.935632 7.576551 -17.394935 19.472680 -4.418698 0.371711 -0.795558 34.373256 -6.938006 -67.134755 7.087300 7.125000 0.000000 0.000000 100.672900 73.918500 117.530000 
10.473903 14.956194 26.694937 -177.567168 -1.545923 -156.292592 8.679281 -0.732261 -1.850150 -13.370565 -14.220233 -60.868978 14.215569 24.796369 75.470775 4.159852 -6.050245 -25.816978 1.906200 -8.667900 -24.761800 -10.307435 -0.195409 -0.361566 25.086027 14.682746 -60.297916 -13.856202 -25.038065 77.869021 -1.190522 -10.275157 -30.814020 -0.017800 -0.862000 2.369200 1.881885 1.130364 25.298641 2.274538 1.921102 13.039586 -5.714464 0.969018 -23.552336 -9.933319 -0.154665 -18.046083 13.713619 -2.953871 -23.295821 3.817100 -4.415100 -5.752400 -0.581266 -11.263816 1.322288 -90.059596 -3.225281 -1.501654 21.710524 -22.390253 -4.881095 1.681991 0.702878 14.245979 6.910148 -38.161022 -3.484700 -7.125000 0.000000 0.000000 -15.205600 -8.336900 17.844900 -0.149900 8.658299 1.972622 80.694882 8.504930 12.395958 -17.443639 19.548262 -4.410425 0.390775 -0.712642 32.143817 -10.582808 -67.539431 10.424400 7.125000 0.000000 0.000000 104.791800 74.565500 120.762900 
10.509839 14.979958 26.697139 -177.463141 -2.028679 -156.712647 8.639554 -0.749756 -1.899092 -13.200263 -14.044080 -60.347210 14.110112 24.703627 75.100295 4.192023 -6.723158 -25.219976 1.820500 -8.481600 -24.186800 -10.260108 -0.193138 -0.357934 25.239451 15.051416 -59.670665 -13.752950 -25.003565 77.648989 -0.989286 -10.892298 -30.609131 -0.011000 -0.676800 1.860000 1.825771 1.236217 25.519466 2.430354 2.053690 12.591229 -5.737055 1.014247 -23.768013 -9.933459 -0.245351 -18.273171 13.681287 -3.003112 -22.700152 3.740800 -4.366900 -5.553300 -0.622008 -11.283986 1.373689 -89.933342 -5.256109 3.087682 22.463094 -23.184874 -5.201070 1.654358 0.667562 13.445884 4.697099 -38.459100 -2.085000 -7.125000 0.000000 0.000000 -16.331600 -8.258600 19.251600 -0.109413 8.725023 1.965458 81.386792 13.827982 17.427081 -17.992596 20.259562 -4.579711 0.412343 -0.655156 30.412057 -10.140344 -67.836529 10.016900 7.125000 0.000000 0.000000 105.489700 74.347400 121.676600 
